<?xml version="1.0" encoding="utf-8"?>
<!-- Generator: Adobe Illustrator 24.3.0, SVG Export Plug-In . SVG Version: 6.00 Build 0)  -->
<svg version="1.1" id="Mercuri_Logo" xmlns="http://www.w3.org/2000/svg" xmlns:xlink="http://www.w3.org/1999/xlink" x="0px"
	 y="0px" viewBox="0 0 595.28 841.89" style="enable-background:new 0 0 595.28 841.89;" xml:space="preserve">
<style type="text/css">
	.st0{fill:#458C66;}
</style>
<path class="st0" d="M526.98,267.74c37.47-31.68,45.56-69.61,24.64-114.55c-1.07,0.98-1.6,1.38-2.04,1.88
	c-5.21,5.85-10.03,12.12-15.71,17.46c-7.76,7.3-15.95,14.17-24.37,20.7c-7.49,5.8-15.25,11.37-23.42,16.14
	c-9.27,5.42-19.13,9.84-28.73,14.72c-1.69,0.86-2.92,0.63-4.25-0.88c-2.62-2.98-5.33-5.93-8.27-8.59
	c-17.74-16.03-39.24-22.16-62.49-22.87c-8.69-0.26-17.45,0.8-26.13,1.76c-11.14,1.23-21.55,5.04-31.24,10.6
	c-11.81,6.77-21.2,16.3-29.59,26.9c-0.85,1.07-1.84,2.02-2.97,3.25c0,0-0.01-0.01-0.01-0.01c0,0-0.01,0.01-0.01,0.01
	c-1.13-1.23-2.12-2.18-2.97-3.25c-8.38-10.6-17.78-20.13-29.59-26.9c-9.69-5.56-20.1-9.36-31.24-10.6
	c-8.67-0.96-17.44-2.02-26.13-1.76c-23.25,0.71-44.75,6.84-62.49,22.87c-2.94,2.66-5.65,5.61-8.27,8.59
	c-1.33,1.51-2.56,1.74-4.25,0.88c-9.6-4.87-19.45-9.3-28.73-14.72c-8.17-4.77-15.93-10.34-23.42-16.14
	c-8.42-6.52-16.62-13.4-24.37-20.7c-5.68-5.34-10.5-11.61-15.71-17.46c-0.44-0.49-0.97-0.9-2.04-1.88
	c-20.93,44.93-12.83,82.87,24.64,114.55c-12.83-0.77-25.06-3.95-36.88-10.86c0.1,20.46,5.66,38.59,17.82,54.27
	c12.06,15.55,27.69,26.24,46.99,31.66c-5.31,2.98-11.26,2.32-16.91,2.57c-5.86,0.26-11.76-0.49-18.72-0.85
	c4.25,7.94,7.71,15.52,12.17,22.45c4.81,7.48,10.69,14.24,18.25,19.2c5.94,3.89,11.93,7.72,18.02,11.38
	c1.59,0.96,3.68,1.05,5.42,1.8c1.72,0.75,2.13,2.24,2.12,4.17c-0.08,19.01-0.05,38.02-0.05,57.03c0,27.7,0,55.39,0,83.09
	c0,4.51,5.4,9.85,9.98,9.85c31.44,0,62.89,0,94.33,0c4.38,0,9.73-5.35,9.73-9.8c0.01-61.22,0-122.44,0.01-183.66
	c0-13.18-0.07-26.37,0.07-39.55c0.04-3.64-0.22-4.88-0.07-8.4c0.01-0.13,0.04-0.26,0.08-0.39c0.47-3.72,3.64-6.6,7.49-6.6
	c3.76,0,6.88,2.76,7.45,6.36c0.03,0.08,0.07,0.16,0.1,0.24c0,0.33,0,0.63,0,0.92c0,0.01,0,0.03,0,0.04c0,0.02,0,0.03,0,0.05
	c-0.02,3.21-0.1,3.9-0.03,7.74c0.31,18.7,0.13,37.4,0.13,56.11c0,55.6,0,111.19,0,166.79c0,4.68,5.39,10.16,10.02,10.16
	c15.69,0,31.38,0.01,47.07,0c15.69,0.01,31.38,0,47.07,0c4.63,0,10.02-5.48,10.02-10.16c0-55.6,0-111.19,0-166.79
	c0-18.7-0.19-37.41,0.13-56.11c0.06-3.85-0.02-4.54-0.03-7.74c0-0.02,0-0.03,0-0.05c0-0.01,0-0.03,0-0.04c0-0.29,0-0.59,0-0.92
	c0.03-0.08,0.07-0.16,0.1-0.24c0.58-3.6,3.69-6.36,7.45-6.36c3.85,0,7.02,2.88,7.49,6.6c0.04,0.13,0.07,0.27,0.08,0.39
	c0.16,3.52-0.1,4.76-0.07,8.4c0.14,13.18,0.07,26.37,0.07,39.55c0,61.22,0,122.44,0.01,183.66c0,4.45,5.35,9.8,9.73,9.8
	c31.44,0,62.89,0,94.33,0c4.57,0,9.98-5.34,9.98-9.85c0-27.7,0-55.39,0-83.09c0-19.01,0.03-38.02-0.05-57.03
	c-0.01-1.93,0.4-3.42,2.12-4.17c1.74-0.76,3.83-0.85,5.42-1.8c6.09-3.66,12.08-7.48,18.02-11.38c7.57-4.96,13.45-11.72,18.25-19.2
	c4.46-6.93,7.92-14.5,12.17-22.45c-6.96,0.36-12.86,1.11-18.72,0.85c-5.65-0.25-11.6,0.41-16.91-2.57
	c19.3-5.42,34.93-16.11,46.99-31.66c12.16-15.68,17.72-33.81,17.82-54.27C552.05,263.79,539.81,266.97,526.98,267.74z"/>
</svg>
